<?xml version="1.0" encoding="utf-8"?>
<!-- Generator: Adobe Illustrator 23.0.3, SVG Export Plug-In . SVG Version: 6.00 Build 0)  -->
<svg version="1.1" id="Capa_1" xmlns="http://www.w3.org/2000/svg" xmlns:xlink="http://www.w3.org/1999/xlink" x="0px" y="0px"
	 viewBox="0 0 512 512" style="enable-background:new 0 0 512 512;" xml:space="preserve">
<style type="text/css">
	.st0{fill:#FF8C8C;}
</style>
<g>
	<g>
		<path class="st0" d="M176.8,0H59.2C26.6,0,0,26.6,0,59.2v117.6C0,209.4,26.6,236,59.2,236h117.6c32.6,0,59.2-26.6,59.2-59.2V59.2
			C236,26.6,209.4,0,176.8,0z M196,176.8c0,10.6-8.6,19.2-19.2,19.2H59.2c-10.6,0-19.2-8.6-19.2-19.2V59.2C40,48.6,48.6,40,59.2,40
			h117.6c10.6,0,19.2,8.6,19.2,19.2V176.8z"/>
	</g>
</g>
<g>
	<g>
		<path class="st0" d="M452,0H336c-33.1,0-60,26.9-60,60v116c0,33.1,26.9,60,60,60h116c33.1,0,60-26.9,60-60V60
			C512,26.9,485.1,0,452,0z M472,176c0,11-9,20-20,20H336c-11,0-20-9-20-20V60c0-11,9-20,20-20h116c11,0,20,9,20,20V176z"/>
	</g>
</g>
<g>
	<g>
		<path class="st0" d="M176.8,276H59.2C26.6,276,0,302.6,0,335.2v117.6C0,485.4,26.6,512,59.2,512h117.6c32.6,0,59.2-26.6,59.2-59.2
			V335.2C236,302.6,209.4,276,176.8,276z M196,452.8c0,10.6-8.6,19.2-19.2,19.2H59.2c-10.6,0-19.2-8.6-19.2-19.2V335.2
			c0-10.6,8.6-19.2,19.2-19.2h117.6c10.6,0,19.2,8.6,19.2,19.2V452.8z"/>
	</g>
</g>
<g>
	<g>
		<path class="st0" d="M452,276H336c-33.1,0-60,26.9-60,60v116c0,33.1,26.9,60,60,60h116c33.1,0,60-26.9,60-60V336
			C512,302.9,485.1,276,452,276z M472,452c0,11-9,20-20,20H336c-11,0-20-9-20-20V336c0-11,9-20,20-20h116c11,0,20,9,20,20V452z"/>
	</g>
</g>
</svg>
